<?xml version="1.0" encoding="UTF-8"?>
<svg xmlns="http://www.w3.org/2000/svg" viewBox="0 0 720 240" width="720" height="240">
  <defs>
    <style>
      .display { font-family: 'Times New Roman', Georgia, serif; }
    </style>
  </defs>
  <g transform="translate(18, 35)">
    <circle cx="85" cy="85" r="81.6" fill="#1C2B1E"/>
    <circle cx="85" cy="85" r="81.6" fill="none" stroke="#C9A87C" stroke-width="2.72"/>
    
  <g transform="translate(72.25, 27.2)">
    <path d="M3.8249999999999997 7.6499999999999995 Q12.75 4.59 21.675 7.6499999999999995 V19.89 Q12.75 16.830000000000002 3.8249999999999997 19.89 Z" fill="none" stroke="#C9A87C" stroke-width="1.4025"/>
    <path d="M12.75 5.61 V18.36" stroke="#C9A87C" stroke-width="1.1475"/>
    <path d="M6.12 10.200000000000001 Q9.18 11.73 11.475 10.709999999999999" fill="none" stroke="#C9A87C" stroke-width="0.8925000000000001" stroke-linecap="round"/>
    <path d="M19.38 10.200000000000001 Q16.32 11.73 14.025 10.709999999999999" fill="none" stroke="#C9A87C" stroke-width="0.8925000000000001" stroke-linecap="round"/>
    <path d="M11.22 6.63 Q12.75 4.08 14.280000000000001 6.63" fill="none" stroke="#C9A87C" stroke-width="1.02" stroke-linecap="round"/>
  </g>
    <ellipse cx="77.9" cy="122.0" rx="3.7" ry="11.9" fill="#C9A87C" transform="rotate(-49.7 77.9 122.0)"/>
  <ellipse cx="71.4" cy="115.9" rx="3.7" ry="11.9" fill="#C9A87C" transform="rotate(-44.1 71.4 115.9)"/>
  <ellipse cx="65.9" cy="109.6" rx="3.7" ry="11.9" fill="#C9A87C" transform="rotate(-37.6 65.9 109.6)"/>
  <ellipse cx="61.5" cy="103.1" rx="3.7" ry="11.9" fill="#C9A87C" transform="rotate(-30.5 61.5 103.1)"/>
  <ellipse cx="58.0" cy="96.3" rx="3.7" ry="11.9" fill="#C9A87C" transform="rotate(-22.7 58.0 96.3)"/>
  <ellipse cx="55.7" cy="89.3" rx="3.7" ry="11.9" fill="#C9A87C" transform="rotate(-14.6 55.7 89.3)"/>
  <ellipse cx="54.3" cy="82.0" rx="3.7" ry="11.9" fill="#C9A87C" transform="rotate(-6.4 54.3 82.0)"/>
  <ellipse cx="54.0" cy="74.5" rx="3.7" ry="11.9" fill="#C9A87C" transform="rotate(1.6 54.0 74.5)"/>
  <ellipse cx="54.7" cy="66.8" rx="3.7" ry="11.9" fill="#C9A87C" transform="rotate(9.0 54.7 66.8)"/>
  <ellipse cx="56.5" cy="58.8" rx="3.7" ry="11.9" fill="#C9A87C" transform="rotate(15.7 56.5 58.8)"/>
  <ellipse cx="59.3" cy="50.6" rx="3.7" ry="11.9" fill="#C9A87C" transform="rotate(21.6 59.3 50.6)"/>
    <ellipse cx="92.1" cy="122.0" rx="3.7" ry="11.9" fill="#C9A87C" transform="rotate(49.7 92.1 122.0)"/>
  <ellipse cx="98.6" cy="115.9" rx="3.7" ry="11.9" fill="#C9A87C" transform="rotate(44.1 98.6 115.9)"/>
  <ellipse cx="104.1" cy="109.6" rx="3.7" ry="11.9" fill="#C9A87C" transform="rotate(37.6 104.1 109.6)"/>
  <ellipse cx="108.5" cy="103.1" rx="3.7" ry="11.9" fill="#C9A87C" transform="rotate(30.5 108.5 103.1)"/>
  <ellipse cx="112.0" cy="96.3" rx="3.7" ry="11.9" fill="#C9A87C" transform="rotate(22.7 112.0 96.3)"/>
  <ellipse cx="114.3" cy="89.3" rx="3.7" ry="11.9" fill="#C9A87C" transform="rotate(14.6 114.3 89.3)"/>
  <ellipse cx="115.7" cy="82.0" rx="3.7" ry="11.9" fill="#C9A87C" transform="rotate(6.4 115.7 82.0)"/>
  <ellipse cx="116.0" cy="74.5" rx="3.7" ry="11.9" fill="#C9A87C" transform="rotate(-1.6 116.0 74.5)"/>
  <ellipse cx="115.3" cy="66.8" rx="3.7" ry="11.9" fill="#C9A87C" transform="rotate(-9.0 115.3 66.8)"/>
  <ellipse cx="113.5" cy="58.8" rx="3.7" ry="11.9" fill="#C9A87C" transform="rotate(-15.7 113.5 58.8)"/>
  <ellipse cx="110.7" cy="50.6" rx="3.7" ry="11.9" fill="#C9A87C" transform="rotate(-21.6 110.7 50.6)"/>
    <text x="85" y="95.2" class="display" font-size="54.4" font-weight="600" fill="#C9A87C" text-anchor="middle" letter-spacing="-0.02em">AM</text>
    <line x1="70.55" y1="105.4" x2="99.45" y2="102" stroke="#C9A87C" stroke-width="0.85" stroke-linecap="round"/>
  </g>
  <line x1="210" y1="66" x2="210" y2="174" stroke="#C9A87C" stroke-width="2" stroke-opacity="0.4"/>
  <text x="238" y="116" class="display" font-size="54" font-weight="500" fill="#1C2B1E" text-anchor="start">AnimaMinds</text>
  <text x="238" y="148" font-family="'Arial', Helvetica, sans-serif" font-size="12" font-weight="600" fill="#C9A87C" letter-spacing="0.12em" text-anchor="start" style="text-transform:uppercase">WHERE PEOPLE AND IDEAS GROW TOGETHER</text>
  <text x="238" y="174" font-family="'Arial', Helvetica, sans-serif" font-size="10" font-weight="600" fill="#C9A87C" letter-spacing="0.08em" text-anchor="start" style="text-transform:uppercase">CPD APPROVED PROVIDER #790577</text>
</svg>