<?xml version="1.0" encoding="UTF-8"?>
<svg xmlns="http://www.w3.org/2000/svg" viewBox="0 0 512 512" width="512" height="512">
  <defs>
    <style>
      .display { font-family: 'Times New Roman', Georgia, serif; }
    </style>
  </defs>
  <circle cx="256" cy="256" r="245.76" fill="#1C2B1E"/>
  <circle cx="256" cy="256" r="245.76" fill="none" stroke="#C9A87C" stroke-width="8.192" stroke-opacity="0.92"/>
  <circle cx="256" cy="256" r="222.72" fill="none" stroke="#C9A87C" stroke-width="2.56" stroke-opacity="0.55"/>

  <text x="99.7" y="123.6" font-family="'Arial', Helvetica, sans-serif" font-size="16.384" font-weight="600" fill="#C9A87C" text-anchor="middle" transform="rotate(310.3 99.7 123.6)" style="text-transform:uppercase; letter-spacing:0.65536px">W</text>
  <text x="106.5" y="116.0" font-family="'Arial', Helvetica, sans-serif" font-size="16.384" font-weight="600" fill="#C9A87C" text-anchor="middle" transform="rotate(313.1 106.5 116.0)" style="text-transform:uppercase; letter-spacing:0.65536px">H</text>
  <text x="113.6" y="108.8" font-family="'Arial', Helvetica, sans-serif" font-size="16.384" font-weight="600" fill="#C9A87C" text-anchor="middle" transform="rotate(316.0 113.6 108.8)" style="text-transform:uppercase; letter-spacing:0.65536px">E</text>
  <text x="121.1" y="101.9" font-family="'Arial', Helvetica, sans-serif" font-size="16.384" font-weight="600" fill="#C9A87C" text-anchor="middle" transform="rotate(318.8 121.1 101.9)" style="text-transform:uppercase; letter-spacing:0.65536px">R</text>
  <text x="128.9" y="95.4" font-family="'Arial', Helvetica, sans-serif" font-size="16.384" font-weight="600" fill="#C9A87C" text-anchor="middle" transform="rotate(321.6 128.9 95.4)" style="text-transform:uppercase; letter-spacing:0.65536px">E</text>
  <text x="137.0" y="89.3" font-family="'Arial', Helvetica, sans-serif" font-size="16.384" font-weight="600" fill="#C9A87C" text-anchor="middle" transform="rotate(324.5 137.0 89.3)" style="text-transform:uppercase; letter-spacing:0.65536px"> </text>
  <text x="145.4" y="83.6" font-family="'Arial', Helvetica, sans-serif" font-size="16.384" font-weight="600" fill="#C9A87C" text-anchor="middle" transform="rotate(327.3 145.4 83.6)" style="text-transform:uppercase; letter-spacing:0.65536px">P</text>
  <text x="154.1" y="78.4" font-family="'Arial', Helvetica, sans-serif" font-size="16.384" font-weight="600" fill="#C9A87C" text-anchor="middle" transform="rotate(330.2 154.1 78.4)" style="text-transform:uppercase; letter-spacing:0.65536px">E</text>
  <text x="163.0" y="73.5" font-family="'Arial', Helvetica, sans-serif" font-size="16.384" font-weight="600" fill="#C9A87C" text-anchor="middle" transform="rotate(333.0 163.0 73.5)" style="text-transform:uppercase; letter-spacing:0.65536px">O</text>
  <text x="172.2" y="69.1" font-family="'Arial', Helvetica, sans-serif" font-size="16.384" font-weight="600" fill="#C9A87C" text-anchor="middle" transform="rotate(335.8 172.2 69.1)" style="text-transform:uppercase; letter-spacing:0.65536px">P</text>
  <text x="181.6" y="65.2" font-family="'Arial', Helvetica, sans-serif" font-size="16.384" font-weight="600" fill="#C9A87C" text-anchor="middle" transform="rotate(338.7 181.6 65.2)" style="text-transform:uppercase; letter-spacing:0.65536px">L</text>
  <text x="191.1" y="61.8" font-family="'Arial', Helvetica, sans-serif" font-size="16.384" font-weight="600" fill="#C9A87C" text-anchor="middle" transform="rotate(341.5 191.1 61.8)" style="text-transform:uppercase; letter-spacing:0.65536px">E</text>
  <text x="200.8" y="58.8" font-family="'Arial', Helvetica, sans-serif" font-size="16.384" font-weight="600" fill="#C9A87C" text-anchor="middle" transform="rotate(344.4 200.8 58.8)" style="text-transform:uppercase; letter-spacing:0.65536px"> </text>
  <text x="210.7" y="56.3" font-family="'Arial', Helvetica, sans-serif" font-size="16.384" font-weight="600" fill="#C9A87C" text-anchor="middle" transform="rotate(347.2 210.7 56.3)" style="text-transform:uppercase; letter-spacing:0.65536px">A</text>
  <text x="220.6" y="54.3" font-family="'Arial', Helvetica, sans-serif" font-size="16.384" font-weight="600" fill="#C9A87C" text-anchor="middle" transform="rotate(350.1 220.6 54.3)" style="text-transform:uppercase; letter-spacing:0.65536px">N</text>
  <text x="230.7" y="52.8" font-family="'Arial', Helvetica, sans-serif" font-size="16.384" font-weight="600" fill="#C9A87C" text-anchor="middle" transform="rotate(352.9 230.7 52.8)" style="text-transform:uppercase; letter-spacing:0.65536px">D</text>
  <text x="240.8" y="51.8" font-family="'Arial', Helvetica, sans-serif" font-size="16.384" font-weight="600" fill="#C9A87C" text-anchor="middle" transform="rotate(355.7 240.8 51.8)" style="text-transform:uppercase; letter-spacing:0.65536px"> </text>
  <text x="250.9" y="51.3" font-family="'Arial', Helvetica, sans-serif" font-size="16.384" font-weight="600" fill="#C9A87C" text-anchor="middle" transform="rotate(358.6 250.9 51.3)" style="text-transform:uppercase; letter-spacing:0.65536px">I</text>
  <text x="261.1" y="51.3" font-family="'Arial', Helvetica, sans-serif" font-size="16.384" font-weight="600" fill="#C9A87C" text-anchor="middle" transform="rotate(361.4 261.1 51.3)" style="text-transform:uppercase; letter-spacing:0.65536px">D</text>
  <text x="271.2" y="51.8" font-family="'Arial', Helvetica, sans-serif" font-size="16.384" font-weight="600" fill="#C9A87C" text-anchor="middle" transform="rotate(364.3 271.2 51.8)" style="text-transform:uppercase; letter-spacing:0.65536px">E</text>
  <text x="281.3" y="52.8" font-family="'Arial', Helvetica, sans-serif" font-size="16.384" font-weight="600" fill="#C9A87C" text-anchor="middle" transform="rotate(367.1 281.3 52.8)" style="text-transform:uppercase; letter-spacing:0.65536px">A</text>
  <text x="291.4" y="54.3" font-family="'Arial', Helvetica, sans-serif" font-size="16.384" font-weight="600" fill="#C9A87C" text-anchor="middle" transform="rotate(369.9 291.4 54.3)" style="text-transform:uppercase; letter-spacing:0.65536px">S</text>
  <text x="301.3" y="56.3" font-family="'Arial', Helvetica, sans-serif" font-size="16.384" font-weight="600" fill="#C9A87C" text-anchor="middle" transform="rotate(372.8 301.3 56.3)" style="text-transform:uppercase; letter-spacing:0.65536px"> </text>
  <text x="311.2" y="58.8" font-family="'Arial', Helvetica, sans-serif" font-size="16.384" font-weight="600" fill="#C9A87C" text-anchor="middle" transform="rotate(375.6 311.2 58.8)" style="text-transform:uppercase; letter-spacing:0.65536px">G</text>
  <text x="320.9" y="61.8" font-family="'Arial', Helvetica, sans-serif" font-size="16.384" font-weight="600" fill="#C9A87C" text-anchor="middle" transform="rotate(378.5 320.9 61.8)" style="text-transform:uppercase; letter-spacing:0.65536px">R</text>
  <text x="330.4" y="65.2" font-family="'Arial', Helvetica, sans-serif" font-size="16.384" font-weight="600" fill="#C9A87C" text-anchor="middle" transform="rotate(381.3 330.4 65.2)" style="text-transform:uppercase; letter-spacing:0.65536px">O</text>
  <text x="339.8" y="69.1" font-family="'Arial', Helvetica, sans-serif" font-size="16.384" font-weight="600" fill="#C9A87C" text-anchor="middle" transform="rotate(384.2 339.8 69.1)" style="text-transform:uppercase; letter-spacing:0.65536px">W</text>
  <text x="349.0" y="73.5" font-family="'Arial', Helvetica, sans-serif" font-size="16.384" font-weight="600" fill="#C9A87C" text-anchor="middle" transform="rotate(387.0 349.0 73.5)" style="text-transform:uppercase; letter-spacing:0.65536px"> </text>
  <text x="357.9" y="78.4" font-family="'Arial', Helvetica, sans-serif" font-size="16.384" font-weight="600" fill="#C9A87C" text-anchor="middle" transform="rotate(389.8 357.9 78.4)" style="text-transform:uppercase; letter-spacing:0.65536px">T</text>
  <text x="366.6" y="83.6" font-family="'Arial', Helvetica, sans-serif" font-size="16.384" font-weight="600" fill="#C9A87C" text-anchor="middle" transform="rotate(392.7 366.6 83.6)" style="text-transform:uppercase; letter-spacing:0.65536px">O</text>
  <text x="375.0" y="89.3" font-family="'Arial', Helvetica, sans-serif" font-size="16.384" font-weight="600" fill="#C9A87C" text-anchor="middle" transform="rotate(395.5 375.0 89.3)" style="text-transform:uppercase; letter-spacing:0.65536px">G</text>
  <text x="383.1" y="95.4" font-family="'Arial', Helvetica, sans-serif" font-size="16.384" font-weight="600" fill="#C9A87C" text-anchor="middle" transform="rotate(398.4 383.1 95.4)" style="text-transform:uppercase; letter-spacing:0.65536px">E</text>
  <text x="390.9" y="101.9" font-family="'Arial', Helvetica, sans-serif" font-size="16.384" font-weight="600" fill="#C9A87C" text-anchor="middle" transform="rotate(401.2 390.9 101.9)" style="text-transform:uppercase; letter-spacing:0.65536px">T</text>
  <text x="398.4" y="108.8" font-family="'Arial', Helvetica, sans-serif" font-size="16.384" font-weight="600" fill="#C9A87C" text-anchor="middle" transform="rotate(404.0 398.4 108.8)" style="text-transform:uppercase; letter-spacing:0.65536px">H</text>
  <text x="405.5" y="116.0" font-family="'Arial', Helvetica, sans-serif" font-size="16.384" font-weight="600" fill="#C9A87C" text-anchor="middle" transform="rotate(406.9 405.5 116.0)" style="text-transform:uppercase; letter-spacing:0.65536px">E</text>
  <text x="412.3" y="123.6" font-family="'Arial', Helvetica, sans-serif" font-size="16.384" font-weight="600" fill="#C9A87C" text-anchor="middle" transform="rotate(409.7 412.3 123.6)" style="text-transform:uppercase; letter-spacing:0.65536px">R</text>
  <text x="154.1" y="433.6" font-family="'Arial', Helvetica, sans-serif" font-size="12.288" font-weight="600" fill="#C9A87C" text-anchor="middle" transform="rotate(389.8 154.1 433.6)" style="text-transform:uppercase; letter-spacing:0.49152px">C</text>
  <text x="160.8" y="437.3" font-family="'Arial', Helvetica, sans-serif" font-size="12.288" font-weight="600" fill="#C9A87C" text-anchor="middle" transform="rotate(387.7 160.8 437.3)" style="text-transform:uppercase; letter-spacing:0.49152px">P</text>
  <text x="167.6" y="440.7" font-family="'Arial', Helvetica, sans-serif" font-size="12.288" font-weight="600" fill="#C9A87C" text-anchor="middle" transform="rotate(385.6 167.6 440.7)" style="text-transform:uppercase; letter-spacing:0.49152px">D</text>
  <text x="174.5" y="443.9" font-family="'Arial', Helvetica, sans-serif" font-size="12.288" font-weight="600" fill="#C9A87C" text-anchor="middle" transform="rotate(383.4 174.5 443.9)" style="text-transform:uppercase; letter-spacing:0.49152px"> </text>
  <text x="181.6" y="446.8" font-family="'Arial', Helvetica, sans-serif" font-size="12.288" font-weight="600" fill="#C9A87C" text-anchor="middle" transform="rotate(381.3 181.6 446.8)" style="text-transform:uppercase; letter-spacing:0.49152px">A</text>
  <text x="188.7" y="449.4" font-family="'Arial', Helvetica, sans-serif" font-size="12.288" font-weight="600" fill="#C9A87C" text-anchor="middle" transform="rotate(379.2 188.7 449.4)" style="text-transform:uppercase; letter-spacing:0.49152px">P</text>
  <text x="195.9" y="451.8" font-family="'Arial', Helvetica, sans-serif" font-size="12.288" font-weight="600" fill="#C9A87C" text-anchor="middle" transform="rotate(377.1 195.9 451.8)" style="text-transform:uppercase; letter-spacing:0.49152px">P</text>
  <text x="203.3" y="453.9" font-family="'Arial', Helvetica, sans-serif" font-size="12.288" font-weight="600" fill="#C9A87C" text-anchor="middle" transform="rotate(374.9 203.3 453.9)" style="text-transform:uppercase; letter-spacing:0.49152px">R</text>
  <text x="210.7" y="455.7" font-family="'Arial', Helvetica, sans-serif" font-size="12.288" font-weight="600" fill="#C9A87C" text-anchor="middle" transform="rotate(372.8 210.7 455.7)" style="text-transform:uppercase; letter-spacing:0.49152px">O</text>
  <text x="218.1" y="457.3" font-family="'Arial', Helvetica, sans-serif" font-size="12.288" font-weight="600" fill="#C9A87C" text-anchor="middle" transform="rotate(370.7 218.1 457.3)" style="text-transform:uppercase; letter-spacing:0.49152px">V</text>
  <text x="225.6" y="458.5" font-family="'Arial', Helvetica, sans-serif" font-size="12.288" font-weight="600" fill="#C9A87C" text-anchor="middle" transform="rotate(368.5 225.6 458.5)" style="text-transform:uppercase; letter-spacing:0.49152px">E</text>
  <text x="233.2" y="459.5" font-family="'Arial', Helvetica, sans-serif" font-size="12.288" font-weight="600" fill="#C9A87C" text-anchor="middle" transform="rotate(366.4 233.2 459.5)" style="text-transform:uppercase; letter-spacing:0.49152px">D</text>
  <text x="240.8" y="460.2" font-family="'Arial', Helvetica, sans-serif" font-size="12.288" font-weight="600" fill="#C9A87C" text-anchor="middle" transform="rotate(364.3 240.8 460.2)" style="text-transform:uppercase; letter-spacing:0.49152px"> </text>
  <text x="248.4" y="460.7" font-family="'Arial', Helvetica, sans-serif" font-size="12.288" font-weight="600" fill="#C9A87C" text-anchor="middle" transform="rotate(362.1 248.4 460.7)" style="text-transform:uppercase; letter-spacing:0.49152px">P</text>
  <text x="256.0" y="460.8" font-family="'Arial', Helvetica, sans-serif" font-size="12.288" font-weight="600" fill="#C9A87C" text-anchor="middle" transform="rotate(360.0 256.0 460.8)" style="text-transform:uppercase; letter-spacing:0.49152px">R</text>
  <text x="263.6" y="460.7" font-family="'Arial', Helvetica, sans-serif" font-size="12.288" font-weight="600" fill="#C9A87C" text-anchor="middle" transform="rotate(357.9 263.6 460.7)" style="text-transform:uppercase; letter-spacing:0.49152px">O</text>
  <text x="271.2" y="460.2" font-family="'Arial', Helvetica, sans-serif" font-size="12.288" font-weight="600" fill="#C9A87C" text-anchor="middle" transform="rotate(355.7 271.2 460.2)" style="text-transform:uppercase; letter-spacing:0.49152px">V</text>
  <text x="278.8" y="459.5" font-family="'Arial', Helvetica, sans-serif" font-size="12.288" font-weight="600" fill="#C9A87C" text-anchor="middle" transform="rotate(353.6 278.8 459.5)" style="text-transform:uppercase; letter-spacing:0.49152px">I</text>
  <text x="286.4" y="458.5" font-family="'Arial', Helvetica, sans-serif" font-size="12.288" font-weight="600" fill="#C9A87C" text-anchor="middle" transform="rotate(351.5 286.4 458.5)" style="text-transform:uppercase; letter-spacing:0.49152px">D</text>
  <text x="293.9" y="457.3" font-family="'Arial', Helvetica, sans-serif" font-size="12.288" font-weight="600" fill="#C9A87C" text-anchor="middle" transform="rotate(349.3 293.9 457.3)" style="text-transform:uppercase; letter-spacing:0.49152px">E</text>
  <text x="301.3" y="455.7" font-family="'Arial', Helvetica, sans-serif" font-size="12.288" font-weight="600" fill="#C9A87C" text-anchor="middle" transform="rotate(347.2 301.3 455.7)" style="text-transform:uppercase; letter-spacing:0.49152px">R</text>
  <text x="308.7" y="453.9" font-family="'Arial', Helvetica, sans-serif" font-size="12.288" font-weight="600" fill="#C9A87C" text-anchor="middle" transform="rotate(345.1 308.7 453.9)" style="text-transform:uppercase; letter-spacing:0.49152px"> </text>
  <text x="316.1" y="451.8" font-family="'Arial', Helvetica, sans-serif" font-size="12.288" font-weight="600" fill="#C9A87C" text-anchor="middle" transform="rotate(342.9 316.1 451.8)" style="text-transform:uppercase; letter-spacing:0.49152px">#</text>
  <text x="323.3" y="449.4" font-family="'Arial', Helvetica, sans-serif" font-size="12.288" font-weight="600" fill="#C9A87C" text-anchor="middle" transform="rotate(340.8 323.3 449.4)" style="text-transform:uppercase; letter-spacing:0.49152px">7</text>
  <text x="330.4" y="446.8" font-family="'Arial', Helvetica, sans-serif" font-size="12.288" font-weight="600" fill="#C9A87C" text-anchor="middle" transform="rotate(338.7 330.4 446.8)" style="text-transform:uppercase; letter-spacing:0.49152px">9</text>
  <text x="337.5" y="443.9" font-family="'Arial', Helvetica, sans-serif" font-size="12.288" font-weight="600" fill="#C9A87C" text-anchor="middle" transform="rotate(336.6 337.5 443.9)" style="text-transform:uppercase; letter-spacing:0.49152px">0</text>
  <text x="344.4" y="440.7" font-family="'Arial', Helvetica, sans-serif" font-size="12.288" font-weight="600" fill="#C9A87C" text-anchor="middle" transform="rotate(334.4 344.4 440.7)" style="text-transform:uppercase; letter-spacing:0.49152px">5</text>
  <text x="351.2" y="437.3" font-family="'Arial', Helvetica, sans-serif" font-size="12.288" font-weight="600" fill="#C9A87C" text-anchor="middle" transform="rotate(332.3 351.2 437.3)" style="text-transform:uppercase; letter-spacing:0.49152px">7</text>
  <text x="357.9" y="433.6" font-family="'Arial', Helvetica, sans-serif" font-size="12.288" font-weight="600" fill="#C9A87C" text-anchor="middle" transform="rotate(330.2 357.9 433.6)" style="text-transform:uppercase; letter-spacing:0.49152px">7</text>

  
  <g transform="translate(217.6, 102.4)">
    <path d="M11.52 23.04 Q38.4 13.824 65.28 23.04 V59.903999999999996 Q38.4 50.688 11.52 59.903999999999996 Z" fill="none" stroke="#C9A87C" stroke-width="4.224"/>
    <path d="M38.4 16.896 V55.296" stroke="#C9A87C" stroke-width="3.456"/>
    <path d="M18.432 30.72 Q27.648 35.328 34.56 32.256" fill="none" stroke="#C9A87C" stroke-width="2.688" stroke-linecap="round"/>
    <path d="M58.367999999999995 30.72 Q49.152 35.328 42.239999999999995 32.256" fill="none" stroke="#C9A87C" stroke-width="2.688" stroke-linecap="round"/>
    <path d="M33.792 19.968 Q38.4 12.288 43.008 19.968" fill="none" stroke="#C9A87C" stroke-width="3.072" stroke-linecap="round"/>
  </g>

  <ellipse cx="235.3" cy="369.5" rx="11.3" ry="35.8" fill="#C9A87C" transform="rotate(-52.3 235.3 369.5)"/>
  <ellipse cx="219.4" cy="356.0" rx="11.3" ry="35.8" fill="#C9A87C" transform="rotate(-46.9 219.4 356.0)"/>
  <ellipse cx="205.6" cy="341.7" rx="11.3" ry="35.8" fill="#C9A87C" transform="rotate(-40.9 205.6 341.7)"/>
  <ellipse cx="193.9" cy="326.6" rx="11.3" ry="35.8" fill="#C9A87C" transform="rotate(-34.4 193.9 326.6)"/>
  <ellipse cx="184.3" cy="310.7" rx="11.3" ry="35.8" fill="#C9A87C" transform="rotate(-27.6 184.3 310.7)"/>
  <ellipse cx="176.9" cy="294.0" rx="11.3" ry="35.8" fill="#C9A87C" transform="rotate(-20.5 176.9 294.0)"/>
  <ellipse cx="171.5" cy="276.5" rx="11.3" ry="35.8" fill="#C9A87C" transform="rotate(-13.5 171.5 276.5)"/>
  <ellipse cx="168.3" cy="258.2" rx="11.3" ry="35.8" fill="#C9A87C" transform="rotate(-6.7 168.3 258.2)"/>
  <ellipse cx="167.1" cy="239.0" rx="11.3" ry="35.8" fill="#C9A87C" transform="rotate(-0.3 167.1 239.0)"/>
  <ellipse cx="168.1" cy="219.1" rx="11.3" ry="35.8" fill="#C9A87C" transform="rotate(5.7 168.1 219.1)"/>
  <ellipse cx="171.2" cy="198.4" rx="11.3" ry="35.8" fill="#C9A87C" transform="rotate(11.1 171.2 198.4)"/>
  <ellipse cx="176.4" cy="176.8" rx="11.3" ry="35.8" fill="#C9A87C" transform="rotate(15.9 176.4 176.8)"/>
  <ellipse cx="183.6" cy="154.5" rx="11.3" ry="35.8" fill="#C9A87C" transform="rotate(20.2 183.6 154.5)"/>
  <ellipse cx="276.7" cy="369.5" rx="11.3" ry="35.8" fill="#C9A87C" transform="rotate(52.3 276.7 369.5)"/>
  <ellipse cx="292.6" cy="356.0" rx="11.3" ry="35.8" fill="#C9A87C" transform="rotate(46.9 292.6 356.0)"/>
  <ellipse cx="306.4" cy="341.7" rx="11.3" ry="35.8" fill="#C9A87C" transform="rotate(40.9 306.4 341.7)"/>
  <ellipse cx="318.1" cy="326.6" rx="11.3" ry="35.8" fill="#C9A87C" transform="rotate(34.4 318.1 326.6)"/>
  <ellipse cx="327.7" cy="310.7" rx="11.3" ry="35.8" fill="#C9A87C" transform="rotate(27.6 327.7 310.7)"/>
  <ellipse cx="335.1" cy="294.0" rx="11.3" ry="35.8" fill="#C9A87C" transform="rotate(20.5 335.1 294.0)"/>
  <ellipse cx="340.5" cy="276.5" rx="11.3" ry="35.8" fill="#C9A87C" transform="rotate(13.5 340.5 276.5)"/>
  <ellipse cx="343.7" cy="258.2" rx="11.3" ry="35.8" fill="#C9A87C" transform="rotate(6.7 343.7 258.2)"/>
  <ellipse cx="344.9" cy="239.0" rx="11.3" ry="35.8" fill="#C9A87C" transform="rotate(0.3 344.9 239.0)"/>
  <ellipse cx="343.9" cy="219.1" rx="11.3" ry="35.8" fill="#C9A87C" transform="rotate(-5.7 343.9 219.1)"/>
  <ellipse cx="340.8" cy="198.4" rx="11.3" ry="35.8" fill="#C9A87C" transform="rotate(-11.1 340.8 198.4)"/>
  <ellipse cx="335.6" cy="176.8" rx="11.3" ry="35.8" fill="#C9A87C" transform="rotate(-15.9 335.6 176.8)"/>
  <ellipse cx="328.4" cy="154.5" rx="11.3" ry="35.8" fill="#C9A87C" transform="rotate(-20.2 328.4 154.5)"/>

  <text x="256" y="286.72" class="display" font-size="97.28" font-weight="600" fill="#C9A87C" text-anchor="middle" letter-spacing="-0.02em">AM</text>
  <line x1="212.48" y1="317.44" x2="299.52" y2="307.2" stroke="#C9A87C" stroke-width="2.56" stroke-linecap="round"/>

  <text x="256" y="414.72" class="display" font-size="39.936" font-weight="500" fill="#C9A87C" text-anchor="middle">AnimaMinds</text>
</svg>